<?xml version="1.0" encoding="UTF-8" standalone="no"?>
<!DOCTYPE svg PUBLIC "-//W3C//DTD SVG 1.1//EN" "http://www.w3.org/Graphics/SVG/1.1/DTD/svg11.dtd">
<!-- Created with Vectornator (http://vectornator.io/) -->
<svg height="100%" stroke-miterlimit="10" style="fill-rule:nonzero;clip-rule:evenodd;stroke-linecap:round;stroke-linejoin:round;" version="1.1" viewBox="0 0 24 24" width="100%" xml:space="preserve" xmlns="http://www.w3.org/2000/svg" xmlns:vectornator="http://vectornator.io" xmlns:xlink="http://www.w3.org/1999/xlink">
<defs/>
<path d="M0 0L24 0L24 24L0 24L0 0Z" fill="#ffffff" fill-rule="nonzero" opacity="1" stroke="none"/>
<g id="Untitled" vectornator:layerName="Untitled">
<path d="M3 19L1 19L1 18C1 16.1362 2.27477 14.57 4 14.126M6 10.8293C4.83481 10.4175 4 9.30623 4 8.00001C4 6.69379 4.83481 5.58255 6 5.17072M21 19L23 19L23 18C23 16.1362 21.7252 14.57 20 14.126M18 5.17072C19.1652 5.58255 20 6.69379 20 8.00001C20 9.30623 19.1652 10.4175 18 10.8293M10 14L14 14C16.2091 14 18 15.7909 18 18L18 19L6 19L6 18C6 15.7909 7.79086 14 10 14ZM15 8C15 9.65685 13.6569 11 12 11C10.3431 11 9 9.65685 9 8C9 6.34315 10.3431 5 12 5C13.6569 5 15 6.34315 15 8Z" fill="none" opacity="1" stroke="#000000" stroke-linecap="round" stroke-linejoin="round" stroke-width="1.5" vectornator:layerName="path"/>
</g>
</svg>
